<svg width="64" height="64" viewBox="0 0 64 64" fill="none" xmlns="http://www.w3.org/2000/svg">
<rect width="64" height="64" fill="#F2032B"/>
<path d="M12.8978 32.5334L17.0487 18.9999H29.8789L29.1242 24.4133H20.4449L19.6902 27.5067C36.294 24.4133 29.5015 52.6403 9.87891 42.9736L11.7031 36.665C23.1733 46.107 27.856 27.1688 12.8978 32.5334Z" fill="white"/>
<path d="M32.6528 27.483C35.3463 19.5233 43.3061 16.6174 47.8735 18.6031C52.7536 20.7249 54.4477 27.4833 52.0327 35.8941C50.3454 41.7704 43.1112 47.5271 36.5435 44.6705C31.2666 42.3751 30.1331 34.9298 32.6528 27.483ZM43.939 24.3541C41.9737 23.8893 39.6852 26.3681 38.7329 30.3951C37.7806 34.422 37.9203 38.2108 40.6899 39.0396C42.6552 39.5043 44.8587 36.7951 45.811 32.7681C46.7631 28.7416 45.9038 24.8193 43.939 24.3541Z" fill="white"/>
</svg>
