<svg width="37" height="56" viewBox="0 0 37 56" fill="none" xmlns="http://www.w3.org/2000/svg">
<path d="M12.9996 0.755859C15.689 0.755859 17.8691 2.93596 17.8691 5.62536V14.4278C17.8691 15.719 18.382 16.9573 19.2948 17.8705L19.3891 17.9648C20.3023 18.8783 21.5412 19.3916 22.8329 19.3916H31.4566C34.146 19.3916 36.3262 21.5718 36.3262 24.2612V32.0064C36.3262 34.6958 34.146 36.876 31.4566 36.876H23.7114C21.022 36.876 18.8418 34.6958 18.8418 32.0064V23.3833C18.8418 22.0918 18.3287 20.8532 17.4155 19.9399L17.1431 19.6675C16.2298 18.7543 14.9912 18.2412 13.6997 18.2412H5.25329C2.56399 18.2412 0.383789 16.061 0.383789 13.3716V5.62536C0.383789 2.93596 2.56399 0.755859 5.25329 0.755859H12.9996ZM0.473589 46.502C0.473589 41.6738 4.38769 37.76 9.21579 37.7598C14.0441 37.7598 17.959 41.6736 17.959 46.502C17.9589 51.3302 14.0441 55.2441 9.21579 55.2441C4.38769 55.2439 0.473689 51.3301 0.473589 46.502Z" fill="url(#paint0_linear_10354_1050)"/>
<defs>
<linearGradient id="paint0_linear_10354_1050" x1="0.383789" y1="55.2441" x2="48.8733" y2="9.86436" gradientUnits="userSpaceOnUse">
<stop stop-color="#F85700"/>
<stop offset="1" stop-color="#FF8514"/>
</linearGradient>
</defs>
</svg>
